<svg width="48" height="48" viewBox="0 0 48 48" fill="none" xmlns="http://www.w3.org/2000/svg">
<path d="M17.4257 24.9128H20.319V37.5484C20.319 37.7979 20.5096 38 20.7448 38H25.6505C25.8857 38 26.0762 37.7979 26.0762 37.5484V24.9723H29.4024C29.6186 24.9723 29.8006 24.8002 29.8253 24.5723L30.3304 19.9205C30.3443 19.7925 30.3061 19.6643 30.2254 19.5683C30.1446 19.4722 30.0289 19.4172 29.9076 19.4172H26.0764V16.5012C26.0764 15.6222 26.5226 15.1765 27.4026 15.1765C27.5281 15.1765 29.9076 15.1765 29.9076 15.1765C30.1428 15.1765 30.3333 14.9742 30.3333 14.7249V10.455C30.3333 10.2055 30.1428 10.0033 29.9076 10.0033H26.4554C26.431 10.0021 26.377 10 26.2973 10C25.6983 10 23.6162 10.1247 21.9715 11.7298C20.1493 13.5084 20.4026 15.638 20.4631 16.0073V19.4171H17.4257C17.1906 19.4171 17 19.6193 17 19.8687V24.4611C17 24.7106 17.1906 24.9128 17.4257 24.9128Z" fill="white"/>
</svg>
