<svg width="10" height="21" viewBox="0 0 10 21" fill="none" xmlns="http://www.w3.org/2000/svg">
<path d="M0.319295 11.1846H2.48929V20.6613C2.48929 20.8484 2.6322 21 2.80858 21H6.48788C6.66426 21 6.80718 20.8484 6.80718 20.6613V11.2292H9.30177C9.46397 11.2292 9.60043 11.1001 9.61895 10.9292L9.99783 7.44037C10.0082 7.34438 9.97956 7.24825 9.91903 7.17624C9.85842 7.10416 9.7717 7.06291 9.68071 7.06291H6.80731V4.87593C6.80731 4.21666 7.14193 3.88236 7.80197 3.88236C7.89604 3.88236 9.68071 3.88236 9.68071 3.88236C9.85708 3.88236 10 3.73068 10 3.54365V0.341216C10 0.154113 9.85708 0.00250645 9.68071 0.00250645H7.09154C7.07328 0.00155806 7.03273 0 6.97296 0C6.52371 0 4.96216 0.0935515 3.72866 1.29733C2.36195 2.6313 2.55193 4.22852 2.59734 4.50545V7.06284H0.319295C0.142916 7.06284 0 7.21445 0 7.40155V10.8458C0 11.0329 0.142916 11.1846 0.319295 11.1846Z" fill="white"/>
</svg>
