<svg width="24" height="24" viewBox="0 0 24 24" fill="none" xmlns="http://www.w3.org/2000/svg">
<path d="M8.26671 12.5188H9.92006V19.7392C9.92006 19.8818 10.029 19.9973 10.1633 19.9973H12.9666C13.101 19.9973 13.2099 19.8818 13.2099 19.7392V12.5528H15.1106C15.2342 12.5528 15.3381 12.4544 15.3523 12.3242L15.6409 9.66599C15.6489 9.59285 15.627 9.51961 15.5809 9.46475C15.5347 9.40983 15.4686 9.3784 15.3993 9.3784H13.21V7.71211C13.21 7.20981 13.465 6.95509 13.9679 6.95509C14.0395 6.95509 15.3993 6.95509 15.3993 6.95509C15.5337 6.95509 15.6426 6.83953 15.6426 6.69703V4.25705C15.6426 4.11449 15.5337 3.99898 15.3993 3.99898H13.4266C13.4127 3.99826 13.3818 3.99707 13.3362 3.99707C12.9939 3.99707 11.8042 4.06835 10.8644 4.98552C9.82304 6.00189 9.96779 7.21884 10.0024 7.42983V9.37835H8.26671C8.13233 9.37835 8.02344 9.49386 8.02344 9.63642V12.2607C8.02344 12.4032 8.13233 12.5188 8.26671 12.5188Z" fill="white"/>
</svg>
