<svg width="56" height="56" viewBox="0 0 56 56" fill="none" xmlns="http://www.w3.org/2000/svg">
<path d="M26.0649 36.5C26.0649 36.0663 26.4159 35.7146 26.8489 35.7146H30.1261C30.5591 35.7146 30.9101 36.0663 30.9101 36.5C30.9101 36.9337 30.5591 37.2854 30.1261 37.2854H26.8489C26.4159 37.2854 26.0649 36.9337 26.0649 36.5Z" fill="white"/>
<path fill-rule="evenodd" clip-rule="evenodd" d="M20.7123 21.5868C21.3278 19.7986 22.3481 17.3896 23.6863 15.4311C25.0316 13.462 26.6624 12 28.4875 12C30.3135 12 31.9433 13.4595 33.2881 15.4272C34.6256 17.3844 35.6456 19.7934 36.2629 21.5871L36.2671 21.5993L36.2733 21.6108C36.3982 21.8441 36.3937 22.1159 36.2793 22.3394L36.2749 22.3481L36.2715 22.3573C36.1199 22.7695 35.935 23.168 35.746 23.5641C39.1396 24.6093 41.6987 27.4673 42.1695 31.029L42.9647 37.045C43.3009 39.5889 40.1674 40.5117 38.1662 41.0429V41.952C38.1662 43.0811 37.2489 44 36.1217 44H20.8534C19.7262 44 18.8089 43.0811 18.8089 41.952V41.3439C16.52 40.7364 12.4252 39.9915 13.092 36.8392L14.4496 30.4197C15.1769 26.981 17.8431 24.3758 21.2082 23.5216C21.0274 23.1392 20.8498 22.7548 20.7037 22.3574L20.7003 22.3482L20.6959 22.3395C20.5814 22.116 20.5769 21.844 20.7019 21.6105L20.7081 21.5991L20.7123 21.5868ZM28.4875 13.5707C27.3327 13.5707 26.273 14.5677 25.3794 15.7651C24.4734 16.9793 23.7803 18.3317 23.1474 19.7035C24.8741 19.1506 26.6779 18.9686 28.4865 18.9685C30.2959 18.9684 32.1004 19.1503 33.8278 19.7035C33.1947 18.3314 32.5015 16.9786 31.5951 15.7643C30.7016 14.5672 29.6421 13.5707 28.4875 13.5707ZM31.1601 20.7083C29.3559 20.4804 27.5608 20.4877 25.8151 20.7083L25.6407 20.7303L26.2059 23.3764C26.4348 24.4478 27.3938 25.2247 28.4876 25.2247C29.5814 25.2247 30.5404 24.4479 30.7693 23.3764L31.3345 20.7303L31.1601 20.7083ZM33.0405 21.1047L32.8699 21.0484L32.3026 23.705C31.9202 25.4952 30.3151 26.7954 28.4875 26.7954C26.66 26.7954 25.0549 25.4952 24.6725 23.705L24.1052 21.0485L23.9345 21.1048C23.3107 21.3105 22.2844 22.0902 22.2844 22.0902L27.0649 30.0984H29.7693C34.6906 22.09 34.6906 22.09 34.6906 22.09C34.6906 22.09 33.6643 21.3104 33.0405 21.1047ZM21.9949 24.9661C19.0407 25.5143 16.6116 27.7761 15.9837 30.7452L14.6259 37.1647C14.218 39.0943 17.4885 39.3686 18.8089 39.7189V31.5151C18.8089 30.7341 19.4435 30.0984 20.2232 30.0984H25.2602C21.9949 24.9661 21.9949 24.9661 21.9949 24.9661ZM34.9684 24.9857C34.9684 24.9857 34.9684 24.9857 31.7148 30.0985H36.7519C37.5316 30.0985 38.1662 30.7341 38.1662 31.5152V39.418C39.2787 39.1228 41.6045 38.7208 41.4102 37.251L40.615 31.2351C40.2122 28.1884 37.9139 25.7353 34.9684 24.9857ZM36.5981 31.6692H20.3769V40.149H36.5981V31.6692ZM36.5981 40.149H20.3769V41.952C20.3769 42.2153 20.5905 42.4293 20.8534 42.4293H36.1217C36.3845 42.4293 36.5981 42.2153 36.5981 41.952V40.149Z" fill="white"/>
</svg>
