<svg width="48" height="48" viewBox="0 0 48 48" fill="none" xmlns="http://www.w3.org/2000/svg">
<path d="M8.04102 20.2534C8.81179 16.4563 10.8873 13.1329 13.7793 10.7717M8.04102 26.8494C8.81179 30.6465 10.8873 33.9698 13.7793 36.331M19.6663 39.4099C21.107 39.8211 22.6283 40.0413 24.201 40.0413C25.7737 40.0413 27.295 39.8211 28.7357 39.4099M19.2541 7.81644C20.8157 7.32595 22.4775 7.06152 24.201 7.06152C25.9246 7.06152 27.5863 7.32595 29.148 7.81644M34.6228 10.7717C37.5147 13.1329 39.5903 16.4563 40.361 20.2534M40.361 26.8494C39.5903 30.6465 37.5147 33.9698 34.6228 36.331" stroke="white" stroke-width="2.2"/>
<circle cx="24.1992" cy="23.5508" r="4.67145" stroke="white" stroke-width="2.2"/>
<circle cx="8.12247" cy="23.5517" r="3.02247" stroke="white" stroke-width="2.2"/>
<circle cx="40.2768" cy="23.5517" r="3.02247" stroke="white" stroke-width="2.2"/>
<circle cx="31.6205" cy="37.9794" r="3.02247" stroke="white" stroke-width="2.2"/>
<circle cx="31.6205" cy="9.12247" r="3.02247" stroke="white" stroke-width="2.2"/>
<circle cx="16.7787" cy="37.9794" r="3.02247" stroke="white" stroke-width="2.2"/>
<circle cx="16.7787" cy="9.12247" r="3.02247" stroke="white" stroke-width="2.2"/>
</svg>