<svg width="50" height="50" viewBox="0 0 50 50" fill="none" xmlns="http://www.w3.org/2000/svg">
<path fill-rule="evenodd" clip-rule="evenodd" d="M43.7919 11.2022L43.7523 11.1894L43.7459 11.1874L43.7047 11.1741L24.8664 5.10803C24.627 5.03106 24.3691 5.03102 24.1293 5.10807L5.2296 11.1939C4.12345 11.5503 4.12222 13.1247 5.22956 13.4813L10.4827 15.1729V22.0993L10.4382 22.1857C9.28731 24.4157 8.68098 26.9109 8.68098 29.4348C8.68098 38.1366 15.7595 45.2503 24.498 45.2503C33.2169 45.2503 40.3151 38.1563 40.3151 29.4348C40.3151 26.911 39.7085 24.4158 38.5576 22.1857L38.513 22.0993V15.1729L42.1962 13.9868V25.15C42.1962 25.8136 42.7342 26.3515 43.398 26.3515C44.0617 26.3515 44.5996 25.8137 44.5996 25.15V12.3378C44.5996 11.8149 44.2573 11.3621 43.7919 11.2022ZM39.4778 12.3375L24.498 7.51421L9.51801 12.3379L24.4231 17.1369L24.4981 16.904L24.5731 17.1369L39.4778 12.3375ZM24.4978 16.7408L24.4978 16.7407L24.4979 16.7408L24.4978 16.7408ZM24.1295 19.5673L12.8862 15.9469V21.4297L24.498 25.1689L36.1099 21.4297V15.9469L24.8666 19.5673C24.6208 19.6462 24.3634 19.6426 24.1295 19.5673ZM36.81 24.1089L36.6659 23.7755L32.2294 25.2041L32.27 25.5325C32.4268 26.8008 32.5069 28.1079 32.5069 29.4348C32.5069 29.8811 32.4973 30.3248 32.4794 30.7658L32.4624 31.182H37.4922V30.8375L37.835 30.8728L37.8401 30.823C37.8872 30.3664 37.9117 29.9036 37.9117 29.4348C37.9117 27.5986 37.5329 25.7813 36.81 24.1089ZM37.4423 30.782L37.4422 30.7821H37.442V30.7819L37.4423 30.782ZM16.7667 25.2041L12.3302 23.7755L12.1861 24.1088C11.4629 25.7816 11.0841 27.5986 11.0841 29.4348C11.0841 29.9036 11.1086 30.3664 11.1557 30.823L11.1926 31.182H16.5331L16.5164 30.7661C16.4988 30.3249 16.4892 29.8811 16.4892 29.4348C16.4892 28.1079 16.5693 26.8008 16.7261 25.5325L16.7667 25.2041ZM24.1293 27.575L19.0914 25.9527L19.0417 26.4448C18.9431 27.4214 18.8923 28.4211 18.8923 29.4348C18.8923 29.8938 18.9028 30.3491 18.9224 30.7995L18.9391 31.182H30.0564L30.0733 30.7997C30.0933 30.349 30.1034 29.8936 30.1034 29.4348C30.1034 28.4211 30.0527 27.4214 29.9541 26.4448L29.9044 25.9527L24.8664 27.575C24.6212 27.6539 24.3633 27.6502 24.1293 27.575ZM16.7546 33.5852H11.7292L11.9316 34.1254C13.0976 37.2391 15.389 39.8061 18.3079 41.3309L19.4218 41.9127L18.8492 40.7941C17.7898 38.7245 17.1429 36.2861 16.8039 33.9282L16.7546 33.5852ZM29.8197 33.5852H19.1761L19.2509 34.0489C19.5126 35.6696 20.0849 37.8241 20.9294 39.5844C21.3512 40.4637 21.851 41.266 22.4306 41.854C23.0105 42.4423 23.7029 42.8472 24.498 42.8472C25.2527 42.8472 25.9214 42.469 26.4896 41.9115C27.0579 41.354 27.5573 40.5876 27.9854 39.731C28.8423 38.0164 29.4524 35.8601 29.7449 34.0489L29.8197 33.5852ZM37.2669 33.5852H32.2415L32.1922 33.9282C31.8532 36.2858 31.2063 38.7242 30.1469 40.7941L29.5744 41.9127L30.6882 41.3309C33.6071 39.8061 35.8985 37.2391 37.0645 34.1254L37.2669 33.5852Z" fill="white"/>
</svg>