<svg width="24" height="24" viewBox="0 0 24 24" fill="none" xmlns="http://www.w3.org/2000/svg">
<path d="M6.81031 5.00781H17.2471C18.2387 5.00781 19.0493 5.81565 19.0493 6.80349V17.2013C19.0493 18.1888 18.2387 18.9961 17.2471 18.9961H6.81031C5.81876 18.9961 5.00732 18.1888 5.00732 17.2013V6.80349C5.00732 5.81565 5.81876 5.00781 6.81031 5.00781ZM15.2367 6.56143C14.8886 6.56143 14.6046 6.84546 14.6046 7.19212V8.69896C14.6046 9.04576 14.8886 9.32914 15.2367 9.32914H16.8236C17.1712 9.32914 17.4558 9.04576 17.4558 8.69896V7.19212C17.4558 6.84546 17.1712 6.56143 16.8236 6.56143H15.2367ZM17.4618 10.9233H16.2263C16.3435 11.3045 16.407 11.7065 16.407 12.1245C16.407 14.4505 14.452 16.3371 12.0415 16.3371C9.63158 16.3371 7.67661 14.4505 7.67661 12.1245C7.67661 11.7065 7.74073 11.3045 7.85733 10.9233H6.56832V16.833C6.56832 17.139 6.81916 17.388 7.12607 17.388H16.9043C17.2115 17.388 17.4618 17.139 17.4618 16.833V10.9233ZM12.0416 9.24968C10.4848 9.24968 9.22193 10.4681 9.22193 11.9724C9.22193 13.4752 10.4848 14.6945 12.0416 14.6945C13.5992 14.6945 14.8621 13.4752 14.8621 11.9724C14.8621 10.468 13.5992 9.24968 12.0416 9.24968Z" fill="white"/>
</svg>
