<svg width="48" height="48" viewBox="0 0 48 48" fill="none" xmlns="http://www.w3.org/2000/svg">
<path d="M15.9104 13H32.7576C34.3582 13 35.6667 14.309 35.6667 15.9097V32.7583C35.6667 34.3585 34.3582 35.6667 32.7576 35.6667H15.9104C14.3098 35.6667 13 34.3585 13 32.7583V15.9097C13 14.309 14.3098 13 15.9104 13ZM29.5124 15.5175C28.9504 15.5175 28.492 15.9777 28.492 16.5395V18.9812C28.492 19.5431 28.9504 20.0023 29.5124 20.0023H32.0739C32.635 20.0023 33.0944 19.5431 33.0944 18.9812V16.5395C33.0944 15.9777 32.635 15.5175 32.0739 15.5175H29.5124ZM33.1041 22.5854H31.1098C31.2989 23.2032 31.4014 23.8546 31.4014 24.5318C31.4014 28.301 28.2458 31.3581 24.3546 31.3581C20.4645 31.3581 17.3088 28.301 17.3088 24.5318C17.3088 23.8546 17.4123 23.2032 17.6005 22.5854H15.5198V32.1615C15.5198 32.6574 15.9247 33.0609 16.4201 33.0609H32.2042C32.7001 33.0609 33.1041 32.6574 33.1041 32.1615V22.5854ZM24.3547 19.8735C21.8417 19.8735 19.8032 21.8478 19.8032 24.2854C19.8032 26.7206 21.8417 28.6963 24.3547 28.6963C26.8691 28.6963 28.9076 26.7206 28.9076 24.2854C28.9076 21.8477 26.8691 19.8735 24.3547 19.8735Z" fill="white"/>
</svg>
