<svg width="17" height="17" viewBox="0 0 17 17" fill="none" xmlns="http://www.w3.org/2000/svg">
<path d="M2.1828 0H14.8182C16.0186 0 17 0.981772 17 2.18229V14.8187C17 16.0189 16.0186 17 14.8182 17H2.1828C0.982373 17 0 16.0189 0 14.8187V2.18229C0 0.981772 0.982373 0 2.1828 0ZM12.3843 1.88811C11.9628 1.88811 11.619 2.2333 11.619 2.65459V4.48587C11.619 4.90733 11.9628 5.25172 12.3843 5.25172H14.3054C14.7263 5.25172 15.0708 4.90733 15.0708 4.48587V2.65459C15.0708 2.2333 14.7263 1.88811 14.3054 1.88811H12.3843ZM15.0781 7.18908H13.5823C13.7242 7.65237 13.8011 8.14093 13.8011 8.64888C13.8011 11.4757 11.4343 13.7686 8.51598 13.7686C5.59838 13.7686 3.23159 11.4757 3.23159 8.64888C3.23159 8.14093 3.30922 7.65237 3.45038 7.18908H1.88983V14.3711C1.88983 14.7431 2.19351 15.0456 2.56507 15.0456H14.4031C14.775 15.0456 15.0781 14.7431 15.0781 14.3711V7.18908ZM8.51604 5.15515C6.6313 5.15515 5.10244 6.63586 5.10244 8.46407C5.10244 10.2904 6.6313 11.7723 8.51604 11.7723C10.4018 11.7723 11.9307 10.2904 11.9307 8.46407C11.9307 6.6358 10.4018 5.15515 8.51604 5.15515Z" fill="white"/>
</svg>
