<svg width="98" height="23" viewBox="0 0 98 23" fill="none" xmlns="http://www.w3.org/2000/svg">
<path d="M94.3709 8.57031L91.7867 17.2147C91.5964 17.9865 91.2377 18.7101 90.7348 19.3371C90.334 19.7541 89.84 20.0772 89.2904 20.2816C88.7408 20.4859 88.1502 20.5662 87.5636 20.5162C86.1076 20.5162 85.2768 20.1256 85.0786 19.3371C84.9517 18.6239 85.0254 17.8909 85.292 17.2147L87.8762 8.57031H84.2477L81.6559 17.2147C81.2258 18.3328 81.1566 19.5508 81.4577 20.7078C82.0675 22.2357 83.8462 22.9997 86.7937 22.9997C89.7412 22.9997 91.9773 22.2357 93.5019 20.7078C94.4316 19.7119 95.0985 18.5135 95.4457 17.2147L98.0375 8.57031H94.3709Z" fill="white"/>
<path d="M9.87928 8.57065L12.4482 0H6.75389L4.19259 8.57065H9.87928ZM11.8307 8.62961L10.6797 12.528H19.4536L16.4578 22.6242H22.1674L28.9213 0H23.2041L20.6199 8.62961H11.8307ZM0 22.6242H5.69431L8.65961 12.6607H2.97293L0 22.6242ZM68.0191 18.2762L68.5375 16.5444H62.6526L63.2777 14.4293H69.6962L70.2222 12.6681H61.3338L58.3609 22.6242H67.5465L68.0801 20.8334H61.372L62.1266 18.2762H68.0191Z" fill="white"/>
<path d="M80.3284 13.6192C80.0842 13.3034 79.7506 13.0628 79.3679 12.9264C78.7602 12.737 78.1233 12.6497 77.4851 12.6685H71.5392L68.5663 22.6246H71.0513L72.21 18.7188H74.8247C75.3262 18.6564 75.8342 18.7688 76.2578 19.0357C76.4636 19.2494 76.4789 19.6769 76.3035 20.3106L76.0443 21.2318C75.9616 21.5131 75.9105 21.8022 75.8919 22.094C75.8816 22.2708 75.8816 22.4479 75.8919 22.6246H78.6742L78.7429 22.3741C78.6438 22.3159 78.5639 22.2316 78.5126 22.1311C78.4613 22.0306 78.4407 21.918 78.4532 21.8066C78.493 21.4936 78.5645 21.185 78.6666 20.8854L78.8648 20.2148C79.061 19.7163 79.1008 19.1728 78.9792 18.6525C78.8864 18.4646 78.7535 18.2979 78.5893 18.1632C78.4251 18.0286 78.2332 17.9291 78.0263 17.8713C78.6883 17.7157 79.2894 17.3778 79.7567 16.8986C80.1457 16.5093 80.4399 16.041 80.6181 15.5279C80.7297 15.1901 80.7584 14.8318 80.7019 14.4814C80.6414 14.1787 80.514 13.8921 80.3284 13.6413V13.6192ZM77.9958 15.8079C77.9253 16.0697 77.7878 16.3102 77.596 16.5072C77.4041 16.7043 77.1642 16.8515 76.8981 16.9354C76.4649 17.0562 76.0148 17.1109 75.5641 17.0976H72.6979L73.4602 14.4224H76.4026C76.805 14.3984 77.2081 14.4587 77.5842 14.5993C78.0111 14.7983 78.133 15.2036 77.9577 15.8079H77.9958ZM30.9473 12.6685L23.6445 22.6246H26.2973L27.738 20.5759H32.1746L32.3499 22.6246H35.0941L33.8059 12.6685H30.9473ZM28.9348 18.8662L31.6638 14.9457L32.0145 18.8662H28.9348Z" fill="white"/>
<path d="M60.2601 12.668H56.9822L51.0821 16.7654L52.3094 12.668H49.8167L46.8438 22.6241H49.3364L50.3274 19.2931L51.8367 18.2761L54.2837 22.6241H57.5387L54.0703 16.7654L60.2601 12.668Z" fill="white"/>
<path d="M46.5533 19.2125H44.0454C43.7908 19.6513 43.4579 20.043 43.062 20.3695C42.4147 20.8704 41.6039 21.1317 40.7751 21.1064C40.4128 21.1348 40.0489 21.0732 39.718 20.9274C39.3872 20.7817 39.1003 20.5567 38.8847 20.2737C38.4883 19.7136 38.4654 18.8735 38.8008 17.7607C39.0502 16.7699 39.5933 15.8709 40.3635 15.1741C41.04 14.5719 41.929 14.2423 42.8486 14.2529C43.1872 14.2122 43.531 14.2498 43.8517 14.3625C44.1723 14.4753 44.4608 14.6599 44.6933 14.9014C44.9094 15.2232 45.0185 15.6012 45.0059 15.9847H47.5367C47.688 15.3542 47.5901 14.6919 47.2622 14.1276C46.6422 13.0271 45.3158 12.4768 43.2831 12.4768C41.805 12.4641 40.359 12.894 39.1438 13.7075C37.7169 14.6776 36.6929 16.1063 36.2548 17.7386C35.7745 19.3525 35.8889 20.6127 36.613 21.5412C37.3372 22.4698 38.5721 22.8972 40.3178 22.8972C41.6492 22.9163 42.9577 22.5604 44.0835 21.8729C45.1521 21.2316 46.009 20.3086 46.5533 19.2125Z" fill="white"/>
</svg>
