<?xml version="1.0" encoding="UTF-8"?> <svg xmlns="http://www.w3.org/2000/svg" width="56" height="56" viewBox="0 0 56 56" fill="none"><path d="M31.9931 22.8153L32.2475 25.1398L28.3704 23.3943L27.9757 23.2188L27.581 23.3943L23.704 25.1398L23.9583 22.8153L24.1689 20.9207L24.2215 20.4821L23.9233 20.1663L21.0637 17.0173L21.6514 16.8945L22.0725 16.8068L25.2302 16.1577L25.2653 16.1489L25.6512 16.07L25.8705 15.6841L27.9757 12L30.0809 15.6841L30.3002 16.07L30.7212 16.1577L34.8877 17.0173L32.0282 20.1663L31.7299 20.4821L31.7826 20.9207L31.9931 22.8153Z" stroke="white" stroke-width="1.5"></path><path d="M39.9635 26.8337L39.0775 27.9374L38.1653 25.5311L38.0714 25.2871L37.8274 25.1932L35.421 24.281L36.5247 23.395L37.4257 22.6742L37.6359 22.509L37.6435 22.2463L37.7673 19.6747L38.0714 19.8737L38.2892 20.0163L39.9184 21.09L39.9372 21.1013L40.1362 21.2327L40.3952 21.1613L42.8729 20.4856L42.1971 22.9633L42.1258 23.2223L42.2685 23.44L43.6838 25.5911L41.1122 25.715L40.8494 25.7225L40.6843 25.9328L39.9635 26.8337Z" stroke="white" stroke-width="1.5"></path><path d="M15.6706 26.8337L16.5565 27.9374L17.4688 25.5311L17.5626 25.2871L17.8066 25.1932L20.213 24.281L19.1093 23.395L18.2083 22.6742L17.9981 22.509L17.9906 22.2463L17.8667 19.6747L17.5626 19.8737L17.3449 20.0163L15.7156 21.09L15.6968 21.1013L15.4979 21.2327L15.2388 21.1613L12.7611 20.4856L13.4369 22.9633L13.5082 23.2223L13.3656 23.44L11.9503 25.5911L14.5218 25.715L14.7846 25.7225L14.9498 25.9328L15.6706 26.8337Z" stroke="white" stroke-width="1.5"></path><circle cx="27.9714" cy="32.0021" r="3.40682" stroke="white" stroke-width="1.5"></circle><path d="M27.9703 35.7679C24.3903 35.7679 21.4882 38.67 21.4882 42.25H34.4524C34.4524 38.67 31.5503 35.7679 27.9703 35.7679Z" stroke="white" stroke-width="1.5"></path></svg> 