<svg width="64" height="65" viewBox="0 0 64 65" fill="none" xmlns="http://www.w3.org/2000/svg">
<path d="M47.6464 38.6743C47.4106 38.4503 47.0961 38.3252 46.7688 38.3252C46.4416 38.3252 46.127 38.4503 45.8913 38.6743C44.3985 40.1469 42.6265 41.3148 40.6764 42.1114C38.7264 42.908 36.6364 43.3177 34.5259 43.3171C30.2636 43.3158 26.1764 41.6434 23.1634 38.6676C20.1504 35.6919 18.4584 31.6566 18.4597 27.4496C18.461 23.2425 20.1554 19.2083 23.1702 16.2343C24.8594 14.5592 26.9106 13.283 29.1702 12.501C29.3244 12.4508 29.4666 12.3701 29.5883 12.2639C29.7099 12.1577 29.8084 12.0282 29.8777 11.8833C29.9417 11.737 29.9747 11.5793 29.9747 11.42C29.9747 11.2606 29.9417 11.1029 29.8777 10.9567C29.7723 10.6636 29.5565 10.422 29.2753 10.2819C28.994 10.1418 28.6689 10.1142 28.3675 10.2046C25.7583 11.1056 23.3903 12.5796 21.4423 14.5154C18.9302 16.9878 17.1906 20.1204 16.4303 23.5406C15.67 26.9608 15.921 30.5246 17.1536 33.808C18.3862 37.0914 20.5484 39.9562 23.383 42.0616C26.2176 44.1671 29.6052 45.4245 33.143 45.6843H33.3063V50.6934H30.3267C30.1541 50.6755 29.9796 50.6935 29.8146 50.7464C29.6496 50.7993 29.4976 50.8859 29.3687 51.0005C29.2397 51.1151 29.1366 51.2552 29.066 51.4116C28.9954 51.5681 28.959 51.7374 28.959 51.9087C28.959 52.08 28.9954 52.2494 29.066 52.4058C29.1366 52.5623 29.2397 52.7024 29.3687 52.8169C29.4976 52.9315 29.6496 53.0181 29.8146 53.071C29.9796 53.1239 30.1541 53.142 30.3267 53.1241H38.7484C39.0527 53.0924 39.3343 52.9508 39.539 52.7264C39.7437 52.5019 39.8569 52.2107 39.8569 51.9087C39.8569 51.6068 39.7437 51.3155 39.539 51.0911C39.3343 50.8667 39.0527 50.725 38.7484 50.6934H35.7688V45.6978H35.9185C40.3435 45.3768 44.5049 43.4994 47.6464 40.4067C47.8725 40.1762 47.9989 39.868 47.9989 39.5472C47.9989 39.2264 47.8725 38.9182 47.6464 38.6878V38.6743Z" fill="white"></path>
<path fill-rule="evenodd" clip-rule="evenodd" d="M34.5306 14.7031C31.9743 14.7031 29.4753 15.4513 27.3498 16.8532C25.2243 18.255 23.5676 20.2475 22.5893 22.5786C21.6111 24.9098 21.3551 27.4749 21.8538 29.9497C22.3525 32.4244 23.5836 34.6976 25.3912 36.4818C27.1988 38.266 29.5018 39.481 32.0091 39.9733C34.5163 40.4656 37.1151 40.2129 39.4769 39.2473C41.8387 38.2817 43.8573 36.6465 45.2775 34.5485C46.6978 32.4506 47.4558 29.984 47.4558 27.4608C47.4522 24.0783 46.0893 20.8354 43.6661 18.4437C41.243 16.0519 37.9575 14.7067 34.5306 14.7031ZM24.6803 30.4689H24.5443V30.348C24.2727 29.4091 24.1353 28.4373 24.1361 27.4608C24.1338 25.3043 24.8164 23.2014 26.0879 21.4477C27.3594 19.6941 29.1558 18.3779 31.2245 17.6844H31.3334L31.415 17.765C32.0141 18.5501 32.3345 19.5082 32.3266 20.4911V21.6057C32.321 22.2576 32.0921 22.8885 31.6771 23.3957C31.2621 23.9028 30.6854 24.2564 30.0408 24.3989C29.054 24.6166 28.1706 25.1567 27.5335 25.9318C26.8964 26.7068 26.5431 27.6714 26.5306 28.6694C26.5168 29.1428 26.3224 29.5936 25.9864 29.9317C25.8155 30.1021 25.6121 30.2372 25.3879 30.3294C25.1637 30.4216 24.9232 30.469 24.6803 30.4689ZM44.8028 29.4483C44.3857 31.4964 43.3523 33.3726 41.8376 34.8317C40.3229 36.2908 38.3975 37.2649 36.313 37.6266H36.2177L35.1157 36.2837C34.5296 35.5701 34.2318 34.6678 34.2795 33.7504C34.3272 32.833 34.7171 31.9655 35.3742 31.3149C35.8238 30.8781 36.3916 30.5786 37.0094 30.4524C37.6272 30.3262 38.2688 30.3785 38.8572 30.6032L39.4694 30.8583C40.2879 31.1714 41.1899 31.2011 42.0277 30.9425C42.8655 30.6839 43.5896 30.1524 44.0817 29.4349C44.1503 29.3538 44.2389 29.2915 44.339 29.2538C44.439 29.2162 44.5472 29.2046 44.6531 29.22H44.83L44.8028 29.4483ZM44.8028 25.2853C44.8968 25.7287 44.9649 26.177 45.0068 26.6282V26.8162H44.8164C44.2836 26.7865 43.7521 26.8948 43.2748 27.1304C42.7975 27.3659 42.3909 27.7206 42.0953 28.1591C41.925 28.4213 41.6676 28.6169 41.3673 28.7124C41.067 28.8079 40.7424 28.7975 40.449 28.6828L39.8096 28.4277C38.774 28.0216 37.6403 27.9247 36.5494 28.1492C35.4586 28.3736 34.4585 28.9094 33.6735 29.69C32.6732 30.6946 32.0498 32.0058 31.9063 33.4073C31.7629 34.8087 32.1079 36.2165 32.8844 37.3983L33.1021 37.7206L32.7075 37.6535C31.2763 37.3938 29.9154 36.843 28.7115 36.0361C27.5075 35.2293 26.4868 34.184 25.7143 32.9667L25.5919 32.7653H25.8096C26.5394 32.5487 27.2033 32.1564 27.7415 31.6238C28.519 30.8177 28.9652 29.7552 28.9932 28.6425C28.991 28.1931 29.1556 27.7584 29.4558 27.4205C29.737 27.0661 30.1377 26.8231 30.5851 26.7356C31.7783 26.4701 32.8462 25.8155 33.6164 24.8775C34.3865 23.9394 34.814 22.7727 34.83 21.5654V20.4911C34.825 19.4066 34.5592 18.3388 34.0545 17.3755L33.932 17.1472H34.2041C35.1896 17.12 36.1741 17.2285 37.1293 17.4695H37.2653V17.6172C37.1048 19.4638 37.5329 21.3137 38.4898 22.9083C38.941 23.6421 39.5761 24.2488 40.334 24.6698C41.0918 25.0909 41.9467 25.3121 42.8164 25.3121H43.4422L44.7347 25.151L44.8028 25.2853ZM43.9048 22.7874L43.1701 22.868H42.8572C42.4138 22.8701 41.9772 22.7601 41.589 22.5485C41.2008 22.337 40.874 22.0309 40.6395 21.6594C40.1118 20.7812 39.8039 19.7914 39.7415 18.7721V18.4498L40.0272 18.611C41.6153 19.573 42.9196 20.9299 43.8096 22.5457L43.9048 22.7874Z" fill="white"></path>
</svg>