<svg width="64" height="65" viewBox="0 0 64 65" fill="none" xmlns="http://www.w3.org/2000/svg">
<path fill-rule="evenodd" clip-rule="evenodd" d="M31.9996 36.4932C29.9076 36.4932 28.2061 38.1947 28.2061 40.2867C28.2061 42.3787 29.9076 44.0802 31.9996 44.0802C34.0916 44.0802 35.7931 42.3787 35.7931 40.2867C35.7931 38.1947 34.0916 36.4932 31.9996 36.4932ZM30.4696 40.2867C30.4696 39.4434 31.1562 38.7568 31.9996 38.7568C32.8429 38.7568 33.5295 39.4434 33.5295 40.2867C33.5295 41.1301 32.8429 41.8167 31.9996 41.8167C31.1562 41.8167 30.4696 41.1301 30.4696 40.2867Z" fill="white"></path>
<path d="M29.0051 23.2679C28.7068 23.2679 28.4159 23.3885 28.2051 23.5994C27.9941 23.8103 27.8734 24.1012 27.8734 24.3997C27.8734 24.6982 27.9942 24.989 28.205 25.1999C28.4159 25.4108 28.7068 25.5315 29.0051 25.5315C29.3036 25.5315 29.5944 25.4107 29.8053 25.1999C30.0164 24.989 30.1369 24.698 30.1369 24.3997C30.1369 24.1012 30.0162 23.8104 29.8053 23.5995C29.5945 23.3886 29.3036 23.2679 29.0051 23.2679Z" fill="white"></path>
<path d="M34.994 23.2679C34.6956 23.2679 34.4048 23.3885 34.1939 23.5994C33.9829 23.8103 33.8622 24.1012 33.8622 24.3997C33.8622 24.6982 33.9831 24.989 34.1939 25.1999C34.4047 25.4108 34.6956 25.5315 34.994 25.5315C35.2925 25.5315 35.5832 25.4107 35.7941 25.1999C36.0052 24.989 36.1258 24.698 36.1258 24.3997C36.1258 24.1012 36.0051 23.8104 35.7942 23.5995C35.5833 23.3886 35.2924 23.2679 34.994 23.2679Z" fill="white"></path>
<path fill-rule="evenodd" clip-rule="evenodd" d="M16.9137 52.4311L16.8571 52.7311L16.864 52.7308H47.1377C49.4057 52.7308 51.4636 51.5756 52.6429 49.6425C53.8222 47.7094 53.9077 45.3509 52.8717 43.3374L48.2695 34.3943V32.3016C48.2695 29.8427 46.2695 27.8427 43.8106 27.8427H39.2294C39.8094 26.711 40.118 25.4513 40.118 24.1508V19.8679C41.7898 18.8224 42.9062 16.965 42.9062 14.8497V10.6752C42.9062 10.0501 42.3994 9.54346 41.7744 9.54346H29.7968C26.5343 9.54346 23.8805 12.1972 23.8805 15.4597V24.1508C23.8805 25.4514 24.1891 26.7109 24.7691 27.8427H21.547H21.5437H20.1879C17.729 27.8427 15.729 29.8427 15.729 32.3016V34.3943L11.1268 43.3375C10.0908 45.3509 10.1762 47.7094 11.3555 49.6425C12.5331 51.5726 14.5866 52.7273 16.847 52.7308L16.9036 52.4311H16.9137ZM17.9926 32.3016C17.9926 31.0914 18.9777 30.1063 20.1879 30.1063H21.1165H21.1205H43.8106C45.0208 30.1063 46.0059 31.0914 46.0059 32.3016V50.4672H17.9926V32.3016ZM26.144 15.4597C26.144 13.4458 27.7828 11.807 29.7968 11.807H40.6427V14.8497C40.6427 16.8635 39.0038 18.5023 36.9899 18.5023H26.144V15.4597ZM36.9899 20.7659C37.2837 20.7659 37.5723 20.744 37.8544 20.7023V24.1508C37.8544 25.5067 37.3907 26.8001 36.5406 27.8427H27.4579C26.6078 26.8001 26.144 25.5067 26.144 24.1508V20.7659H36.9899ZM13.2879 48.4636C12.5221 47.2084 12.4667 45.6806 13.1395 44.3732L15.729 39.3412V50.3147C14.7221 50.0363 13.8517 49.3877 13.2879 48.4636ZM50.7105 48.4636C50.1466 49.3881 49.2755 50.0369 48.2695 50.3152V39.3412L50.8589 44.3733C51.5317 45.6807 51.4763 47.2083 50.7105 48.4636Z" fill="white"></path>
</svg>
