<svg width="48" height="48" viewBox="0 0 48 48" fill="none" xmlns="http://www.w3.org/2000/svg">
<g clip-path="url(#clip0)">
<path fill-rule="evenodd" clip-rule="evenodd" d="M6.11328 24.5369V23.2751C13.5365 23.2212 17.6004 22.842 20.269 20.1733C22.8314 17.611 23.2831 13.7623 23.3627 6.88867H24.6459C24.7256 13.7623 25.1773 17.611 27.7396 20.1733C30.2151 22.6488 33.8912 23.1543 40.3355 23.2576V24.5543C33.8912 24.6576 30.2151 25.1631 27.7396 27.6386C25.1541 30.2241 24.7176 34.1195 24.6439 41.1109H23.365C23.2913 34.1195 22.8548 30.2242 20.2692 27.6387C17.6006 24.97 13.5366 24.5908 6.11328 24.5369Z" fill="white"/>
</g>
<defs>
<clipPath id="clip0">
<rect x="10" y="10" width="28" height="28" fill="white"/>
</clipPath>
</defs>
</svg>
