<svg width="44" height="44" viewBox="0 0 44 44" fill="none" xmlns="http://www.w3.org/2000/svg">
<path fill-rule="evenodd" clip-rule="evenodd" d="M21.9996 27.356C19.9076 27.356 18.2061 29.0575 18.2061 31.1495C18.2061 33.2415 19.9076 34.943 21.9996 34.943C24.0916 34.943 25.7931 33.2415 25.7931 31.1495C25.7931 29.0575 24.0916 27.356 21.9996 27.356ZM20.4696 31.1495C20.4696 30.3062 21.1562 29.6196 21.9996 29.6196C22.8429 29.6196 23.5295 30.3062 23.5295 31.1495C23.5295 31.9929 22.8429 32.6795 21.9996 32.6795C21.1562 32.6795 20.4696 31.9929 20.4696 31.1495Z" fill="white"/>
<path d="M19.0051 14.1307C18.7068 14.1307 18.4159 14.2513 18.2051 14.4622C17.9941 14.6731 17.8734 14.964 17.8734 15.2625C17.8734 15.5609 17.9942 15.8518 18.205 16.0627C18.4159 16.2736 18.7068 16.3942 19.0051 16.3942C19.3036 16.3942 19.5944 16.2735 19.8053 16.0627C20.0164 15.8518 20.1369 15.5608 20.1369 15.2625C20.1369 14.964 20.0162 14.6732 19.8053 14.4623C19.5945 14.2514 19.3036 14.1307 19.0051 14.1307Z" fill="white"/>
<path d="M24.994 14.1307C24.6956 14.1307 24.4048 14.2513 24.1939 14.4622C23.9829 14.6731 23.8622 14.964 23.8622 15.2625C23.8622 15.5609 23.9831 15.8518 24.1939 16.0627C24.4047 16.2736 24.6956 16.3942 24.994 16.3942C25.2925 16.3942 25.5832 16.2735 25.7941 16.0627C26.0052 15.8518 26.1258 15.5608 26.1258 15.2625C26.1258 14.964 26.0051 14.6732 25.7942 14.4623C25.5833 14.2514 25.2924 14.1307 24.994 14.1307Z" fill="white"/>
<path fill-rule="evenodd" clip-rule="evenodd" d="M6.91366 43.2939L6.85712 43.5939L6.86404 43.5936H37.1377C39.4057 43.5936 41.4636 42.4384 42.6429 40.5053C43.8222 38.5722 43.9077 36.2136 42.8717 34.2002L38.2695 25.257V23.1644C38.2695 20.7055 36.2695 18.7055 33.8106 18.7055H29.2294C29.8094 17.5738 30.118 16.3141 30.118 15.0136V10.7307C31.7898 9.68517 32.9062 7.82783 32.9062 5.71251V1.53803C32.9062 0.912935 32.3994 0.40625 31.7744 0.40625H19.7968C16.5343 0.40625 13.8805 3.06003 13.8805 6.32245V15.0136C13.8805 16.3142 14.1891 17.5737 14.7691 18.7055H11.547H11.5437H10.1879C7.729 18.7055 5.72899 20.7055 5.72899 23.1644V25.257L1.1268 34.2003C0.0907845 36.2137 0.176241 38.5722 1.35554 40.5053C2.53308 42.4354 4.58659 43.5901 6.84701 43.5936L6.90357 43.2939H6.91366ZM7.99256 23.1644C7.99256 21.9542 8.97766 20.9691 10.1879 20.9691H11.1165H11.1205H33.8106C35.0208 20.9691 36.0059 21.9542 36.0059 23.1644V41.33H7.99256V23.1644ZM16.144 6.32245C16.144 4.30862 17.7828 2.66982 19.7968 2.66982H30.6427V5.71251C30.6427 7.72634 29.0038 9.36514 26.9899 9.36514H16.144V6.32245ZM26.9899 11.6287C27.2837 11.6287 27.5723 11.6068 27.8544 11.5651V15.0136C27.8544 16.3695 27.3907 17.6629 26.5406 18.7055H17.4579C16.6078 17.6629 16.144 16.3695 16.144 15.0136V11.6287H26.9899ZM3.28794 39.3264C2.52211 38.0711 2.46675 36.5434 3.13955 35.236L5.72899 30.204V41.1775C4.72213 40.8991 3.85168 40.2505 3.28794 39.3264ZM40.7105 39.3264C40.1466 40.2509 39.2755 40.8996 38.2695 41.1779V30.204L40.8589 35.2361C41.5317 36.5435 41.4763 38.0711 40.7105 39.3264Z" fill="white"/>
</svg>
