<svg width="50" height="44" viewBox="0 0 50 44" fill="none" xmlns="http://www.w3.org/2000/svg">
<path d="M21.3528 27.1191L21.3523 27.1191C20.6833 27.1229 20.0267 26.9387 19.4573 26.5874C18.888 26.2361 18.4287 25.7319 18.132 25.1323C17.8353 24.5327 17.7131 23.8618 17.7792 23.1961C17.8262 22.7224 17.9673 22.2649 18.1921 21.8496L23.0411 26.6891C22.5248 26.9674 21.9453 27.1164 21.3528 27.1191Z" fill="white" stroke="white"/>
<path d="M31.5684 12.5366V12.0366H31.0684H17.8551L16.5938 10.7754H42.4285V30.423V32.6842V36.6892L41.1673 35.428V28.8514V28.3514H40.6673H37.1737H36.6737V28.8514V30.9118L35.4125 29.6506V27.0789H40.6673H41.1673V26.5789V22.1356V21.6356H40.6673H35.4125V18.2915V17.7915H34.9125H31.5684V12.5366ZM40.6673 20.363H41.1673V19.863V12.5366V12.0366H40.6673H33.3296H32.8296V12.5366V16.0302V16.5302H33.3296H36.6737V19.863V20.363H37.1737H40.6673Z" fill="white" stroke="white"/>
<path d="M7.12283 10.7754L8.38797 12.0366H2.44092H1.94092V12.5366V19.863V20.363H2.44092H5.93452H6.43452V19.863V16.5302H9.73339H10.2334V16.0302V13.9246L11.4946 15.1859V17.7915H8.20706H7.70706V18.2915V21.6356H2.44092H1.94092V22.1356V26.5789V27.0789H2.44092H7.70706V30.423V30.923H8.20706H11.4946V36.1778V36.6778H11.9946H31.0681H31.5681V36.1778V35.2141L34.293 37.939H0.679688V10.7754H7.12283ZM9.73339 36.6778H10.2334V36.1778V32.6842V32.1842H9.73339H6.43452V28.8514V28.3514H5.93452H2.44092H1.94092V28.8514V36.1778V36.6778H2.44092H9.73339Z" fill="white" stroke="white"/>
<path d="M8.29688 1.64893L48.9991 42.3511L8.29688 1.64893Z" fill="white"/>
<path d="M8.29688 1.64893L48.999 42.3511" stroke="white" stroke-width="2"/>
</svg>
