<svg width="45" height="45" viewBox="0 0 45 45" fill="none" xmlns="http://www.w3.org/2000/svg">
<path d="M43.6879 10.3775C43.0416 9.71993 42.218 9.272 41.3211 9.09046C40.4243 8.90892 39.4946 9.00193 38.6498 9.35772C37.805 9.71351 37.0831 10.3161 36.5754 11.0891C36.0677 11.8622 35.7971 12.771 35.7979 13.7004V18.5585H35.6389C34.7085 18.7263 33.8516 19.1812 33.1845 19.8613L27.729 25.4062C27.6251 25.5105 27.5426 25.6347 27.4863 25.7717C27.4301 25.9087 27.4011 26.0556 27.4011 26.2041V35.6071H27.1129C26.8178 35.6071 26.5347 35.7263 26.326 35.9384C26.1173 36.1506 26 36.4383 26 36.7383V40.3035C26 41.5491 26.4868 42.7437 27.3534 43.6244C28.2199 44.5052 29.3952 45 30.6207 45H35.301C36.5257 44.9973 37.6995 44.5017 38.5655 43.6215C39.4315 42.7413 39.9191 41.5483 39.9217 40.3035V36.7383C39.9219 36.4865 39.8387 36.2419 39.6855 36.044C39.5323 35.8462 39.318 35.7065 39.0771 35.6475L38.7293 35.5566L43.6481 30.5672C44.0784 30.1317 44.4194 29.6138 44.6514 29.0434C44.8834 28.473 45.0017 27.8616 44.9996 27.2444V13.7004C45.008 13.0859 44.8964 12.4758 44.6713 11.9054C44.4461 11.335 44.1119 10.8157 43.6879 10.3775ZM37.7257 40.3035C37.7257 40.6258 37.6628 40.9448 37.5406 41.2421C37.4184 41.5394 37.2393 41.8091 37.0137 42.0355C36.7882 42.2619 36.5207 42.4406 36.2267 42.5611C35.9327 42.6816 35.618 42.7416 35.301 42.7376H30.6207C29.9856 42.7376 29.3764 42.4812 28.9273 42.0247C28.4782 41.5682 28.2259 40.9491 28.2259 40.3035V37.8695H37.7356L37.7257 40.3035ZM42.8035 27.2444C42.8033 27.8905 42.5535 28.5107 42.1079 28.9715L36.573 34.5971L36.3643 35.5465H29.627V26.7091L34.7545 21.4874C35.0131 21.2277 35.3263 21.0309 35.6706 20.912C36.0148 20.793 36.3811 20.755 36.7419 20.8006C37.2546 20.8718 37.7297 21.1132 38.0933 21.4874C38.3172 21.7128 38.4948 21.981 38.6161 22.2766C38.7374 22.5722 38.7998 22.8892 38.7998 23.2095C38.7998 23.5297 38.7374 23.8468 38.6161 24.1423C38.4948 24.4379 38.3172 24.7061 38.0933 24.9315L34.6253 28.4665L36.2947 30.0521L39.7628 26.5172C40.1945 26.0832 40.5372 25.5665 40.7712 24.997C41.0051 24.4275 41.1255 23.8165 41.1255 23.1994C41.1255 22.5822 41.0051 21.9712 40.7712 21.4017C40.5372 20.8322 40.1945 20.3155 39.7628 19.8815C39.3137 19.4432 38.7834 19.0999 38.2026 18.8716H38.0735V13.8216C38.0735 13.502 38.1354 13.1854 38.2558 12.8901C38.3761 12.5948 38.5525 12.3265 38.7749 12.1005C38.9973 11.8744 39.2613 11.6951 39.5518 11.5728C39.8424 11.4505 40.1538 11.3875 40.4683 11.3875C40.7828 11.3875 41.0942 11.4505 41.3847 11.5728C41.6753 11.6951 41.9393 11.8744 42.1617 12.1005C42.3841 12.3265 42.5604 12.5948 42.6808 12.8901C42.8012 13.1854 42.8631 13.502 42.8631 13.8216L42.8035 27.2444Z" fill="white"/>
<path d="M1.31213 10.3775C1.95836 9.71993 2.78204 9.272 3.67888 9.09046C4.57572 8.90892 5.5054 9.00193 6.3502 9.35772C7.195 9.71351 7.91694 10.3161 8.42462 11.0891C8.9323 11.8622 9.20288 12.771 9.20211 13.7004V18.5585H9.3611C10.2915 18.7263 11.1484 19.1812 11.8155 19.8613L17.271 25.4062C17.3749 25.5105 17.4574 25.6347 17.5137 25.7717C17.5699 25.9087 17.5989 26.0556 17.5989 26.2041V35.6071H17.8871C18.1822 35.6071 18.4653 35.7263 18.674 35.9384C18.8827 36.1506 19 36.4383 19 36.7383V40.3035C19 41.5491 18.5132 42.7437 17.6466 43.6244C16.7801 44.5052 15.6048 45 14.3793 45H9.69896C8.47428 44.9973 7.30051 44.5017 6.43453 43.6215C5.56855 42.7413 5.08088 41.5483 5.07825 40.3035V36.7383C5.07806 36.4865 5.16128 36.2419 5.3145 36.044C5.46773 35.8462 5.68204 35.7065 5.9229 35.6475L6.27069 35.5566L1.35188 30.5672C0.921597 30.1317 0.580597 29.6138 0.348619 29.0434C0.116642 28.473 -0.00169754 27.8616 0.000448227 27.2444V13.7004C-0.00801659 13.0859 0.103558 12.4758 0.328712 11.9054C0.553867 11.335 0.888128 10.8157 1.31213 10.3775ZM7.27433 40.3035C7.27431 40.6258 7.33723 40.9448 7.45944 41.2421C7.58165 41.5394 7.76072 41.8091 7.98627 42.0355C8.21181 42.2619 8.47934 42.4406 8.77335 42.5611C9.06735 42.6816 9.38197 42.7416 9.69896 42.7376H14.3793C15.0144 42.7376 15.6236 42.4812 16.0727 42.0247C16.5218 41.5682 16.7741 40.9491 16.7741 40.3035V37.8695H7.2644L7.27433 40.3035ZM2.19653 27.2444C2.19667 27.8905 2.44646 28.5107 2.89212 28.9715L8.42703 34.5971L8.6357 35.5465H15.373V26.7091L10.2455 21.4874C9.98686 21.2277 9.67365 21.0309 9.32942 20.912C8.98519 20.793 8.61889 20.755 8.2581 20.8006C7.74541 20.8718 7.27026 21.1132 6.90666 21.4874C6.68283 21.7128 6.50516 21.981 6.3839 22.2766C6.26265 22.5722 6.20022 22.8892 6.20022 23.2095C6.20022 23.5297 6.26265 23.8468 6.3839 24.1423C6.50516 24.4379 6.68283 24.7061 6.90666 24.9315L10.3747 28.4665L8.70526 30.0521L5.23725 26.5172C4.80551 26.0832 4.46276 25.5665 4.22883 24.997C3.9949 24.4275 3.87445 23.8165 3.87445 23.1994C3.87445 22.5822 3.9949 21.9712 4.22883 21.4017C4.46276 20.8322 4.80551 20.3155 5.23725 19.8815C5.68633 19.4432 6.21664 19.0999 6.79736 18.8716H6.92654V13.8216C6.92654 13.502 6.8646 13.1854 6.74424 12.8901C6.62389 12.5948 6.44749 12.3265 6.22511 12.1005C6.00273 11.8744 5.73873 11.6951 5.44818 11.5728C5.15762 11.4505 4.84621 11.3875 4.53172 11.3875C4.21723 11.3875 3.90581 11.4505 3.61526 11.5728C3.32471 11.6951 3.06071 11.8744 2.83833 12.1005C2.61595 12.3265 2.43955 12.5948 2.3192 12.8901C2.19885 13.1854 2.1369 13.502 2.1369 13.8216L2.19653 27.2444Z" fill="white"/>
<path d="M22.5 2.01661L24.9888 6.37506L25.2124 6.76665L25.654 6.85831L30.5682 7.87849L27.1921 11.5923L26.8888 11.926L26.9381 12.3742L27.4864 17.3632L22.9111 15.3L22.5 15.1147L22.0889 15.3L17.5136 17.3632L18.0619 12.3742L18.1112 11.926L17.8079 11.5923L14.4318 7.87849L19.346 6.85831L19.7876 6.76665L20.0112 6.37506L22.5 2.01661Z" stroke="white" stroke-width="2"/>
</svg>
