<svg width="48" height="48" viewBox="0 0 48 48" fill="none" xmlns="http://www.w3.org/2000/svg">
<path d="M12.3718 23.7491L17.528 25.6193L19.5238 31.857C19.6515 32.2565 20.1542 32.4042 20.4878 32.1391L23.362 29.862C23.6633 29.6234 24.0924 29.6115 24.4072 29.8336L29.5912 33.4913C29.9481 33.7435 30.4538 33.5534 30.5433 33.1342L34.3408 15.3817C34.4385 14.9239 33.9756 14.5419 33.527 14.7106L12.3658 22.6441C11.8436 22.8398 11.8481 23.5583 12.3718 23.7491ZM19.2022 24.6237L29.2793 18.592C29.4604 18.4839 29.6468 18.7219 29.4913 18.8621L21.1747 26.3751C20.8823 26.6395 20.6938 26.9934 20.6404 27.3776L20.3571 29.4179C20.3195 29.6903 19.9258 29.7174 19.8484 29.4537L18.7589 25.7331C18.6341 25.3087 18.8159 24.8554 19.2022 24.6237Z" fill="white"/>
</svg>
