<svg width="24" height="24" viewBox="0 0 24 24" fill="none" xmlns="http://www.w3.org/2000/svg">
<path d="M5.2741 11.7581L8.49 12.9314L9.73474 16.8445C9.81439 17.0951 10.1279 17.1877 10.336 17.0214L12.1286 15.5929C12.3165 15.4433 12.5841 15.4358 12.7805 15.5751L16.0137 17.8697C16.2363 18.0279 16.5517 17.9086 16.6075 17.6457L18.976 6.50905C19.0369 6.22182 18.7482 5.98221 18.4684 6.08799L5.27034 11.0649C4.94463 11.1877 4.94747 11.6385 5.2741 11.7581ZM9.53414 12.3068L15.8192 8.52291C15.9321 8.4551 16.0484 8.6044 15.9514 8.69235L10.7644 13.4055C10.5821 13.5714 10.4644 13.7934 10.4311 14.0344L10.2544 15.3143C10.231 15.4852 9.98545 15.5022 9.93721 15.3368L9.25766 13.0027C9.17983 12.7365 9.29325 12.4522 9.53414 12.3068Z" fill="white"/>
</svg>
