<svg width="48" height="48" viewBox="0 0 48 48" fill="none" xmlns="http://www.w3.org/2000/svg">
<path d="M37.429 30.0817C37.3573 29.9661 36.9139 29.0374 34.7805 27.1287C32.547 25.1299 32.847 25.4545 35.5372 21.9985C37.1756 19.8938 37.8307 18.6084 37.6257 18.0589C37.4306 17.5352 36.2256 17.6733 36.2256 17.6733L32.2186 17.6958C32.2186 17.6958 31.9219 17.6573 31.7002 17.7842C31.4852 17.9095 31.3469 18.1987 31.3469 18.1987C31.3469 18.1987 30.7118 19.8279 29.8651 21.2129C28.08 24.1354 27.3649 24.2897 27.0732 24.1081C26.3948 23.6855 26.5648 22.4082 26.5648 21.5021C26.5648 18.6695 27.0099 17.4886 25.6965 17.1833C25.2598 17.0821 24.9397 17.0146 23.8246 17.0033C22.3945 16.9889 21.1828 17.0082 20.4977 17.3311C20.041 17.5464 19.6893 18.0268 19.9044 18.0541C20.1694 18.0879 20.7694 18.21 21.0878 18.6277C21.4995 19.1659 21.4845 20.3774 21.4845 20.3774C21.4845 20.3774 21.7212 23.7112 20.9328 24.1258C20.3911 24.4102 19.6493 23.8301 18.0576 21.1775C17.2425 19.8199 16.6258 18.3176 16.6258 18.3176C16.6258 18.3176 16.5074 18.0381 16.2958 17.8886C16.0391 17.7071 15.679 17.6492 15.679 17.6492L11.8688 17.6717C11.8688 17.6717 11.2971 17.6878 11.087 17.9272C10.9004 18.1409 11.072 18.5811 11.072 18.5811C11.072 18.5811 14.0556 25.3083 17.4325 28.7C20.5311 31.8089 24.048 31.6049 24.048 31.6049H25.6414C25.6414 31.6049 26.1231 31.5535 26.3682 31.298C26.5949 31.0634 26.5865 30.6232 26.5865 30.6232C26.5865 30.6232 26.5548 28.5618 27.5483 28.2582C28.5267 27.9593 29.7834 30.2504 31.1152 31.1325C32.1219 31.7993 32.887 31.6531 32.887 31.6531L36.4489 31.6049C36.4489 31.6049 38.3124 31.494 37.429 30.0817Z" fill="white"/>
</svg>
