<svg width="24" height="24" viewBox="0 0 24 24" fill="none" xmlns="http://www.w3.org/2000/svg">
<path d="M21.1755 15.7285C21.128 15.6542 20.8343 15.0571 19.421 13.83C17.9415 12.5451 18.1402 12.7537 19.9223 10.5319C21.0077 9.17875 21.4416 8.35241 21.3058 7.99915C21.1766 7.66241 20.3783 7.75124 20.3783 7.75124L17.7239 7.7657C17.7239 7.7657 17.5274 7.74091 17.3806 7.82252C17.2381 7.90308 17.1465 8.08901 17.1465 8.08901C17.1465 8.08901 16.7258 9.1364 16.1649 10.0268C14.9824 11.9057 14.5087 12.0048 14.3155 11.8881C13.8661 11.6165 13.9787 10.7953 13.9787 10.2127C13.9787 8.39166 14.2735 7.63246 13.4034 7.4362C13.1142 7.37113 12.9022 7.32774 12.1635 7.32051C11.2161 7.31122 10.4134 7.32361 9.95962 7.53123C9.65708 7.66964 9.42411 7.97849 9.56654 7.99605C9.7421 8.01774 10.1396 8.09624 10.3505 8.3648C10.6232 8.71083 10.6133 9.48966 10.6133 9.48966C10.6133 9.48966 10.7701 11.633 10.2478 11.8995C9.88895 12.0823 9.39761 11.7094 8.34315 10.0041C7.80323 9.13123 7.39469 8.16545 7.39469 8.16545C7.39469 8.16545 7.3163 7.98572 7.17607 7.88966C7.00604 7.77294 6.76754 7.73575 6.76754 7.73575L4.24347 7.75021C4.24347 7.75021 3.86475 7.76054 3.72563 7.91445C3.60197 8.05183 3.71569 8.33485 3.71569 8.33485C3.71569 8.33485 5.69211 12.6597 7.9291 14.8402C9.9817 16.8389 12.3114 16.7078 12.3114 16.7078H13.367C13.367 16.7078 13.6861 16.6747 13.8484 16.5105C13.9986 16.3597 13.993 16.0766 13.993 16.0766C13.993 16.0766 13.9721 14.7514 14.6301 14.5562C15.2783 14.364 16.1108 15.837 16.993 16.4041C17.6599 16.8327 18.1667 16.7387 18.1667 16.7387L20.5263 16.7078C20.5263 16.7078 21.7607 16.6365 21.1755 15.7285Z" fill="white"/>
</svg>
