<svg width="48" height="48" viewBox="0 0 48 48" fill="none" xmlns="http://www.w3.org/2000/svg">
<path d="M35.8444 16.5492C34.9307 15.4835 33.2437 15.0488 30.022 15.0488H18.3273C15.0318 15.0488 13.3163 15.5116 12.406 16.6461C11.5186 17.7523 11.5186 19.3821 11.5186 21.6379V25.9374C11.5186 30.3076 12.5716 32.5265 18.3273 32.5265H30.0221C32.816 32.5265 34.3641 32.1429 35.3657 31.2025C36.3928 30.2381 36.831 28.6635 36.831 25.9374V21.6379C36.831 19.259 36.7623 17.6195 35.8444 16.5492ZM27.7692 24.3813L22.4587 27.1044C22.34 27.1652 22.2101 27.1954 22.0805 27.1954C21.9336 27.1954 21.7872 27.1567 21.6574 27.0796C21.4131 26.9344 21.2639 26.6746 21.2639 26.3943V20.9656C21.2639 20.6859 21.4127 20.4263 21.6565 20.281C21.9004 20.1357 22.2038 20.1257 22.4568 20.2547L27.7674 22.9603C28.0375 23.0979 28.2072 23.3716 28.2076 23.6701C28.208 23.9689 28.039 24.243 27.7692 24.3813Z" fill="white"/>
</svg>
